<svg role="img" viewBox="0 0 24 24" xmlns="http://www.w3.org/2000/svg">
  <title>GitHub</title>
  <path fill="#181717" d="M12 .297a12 12 0 0 0-3.79 23.39c.6.113.82-.26.82-.577v-2.234c-3.338.726-4.042-1.416-4.042-1.416-.546-1.387-1.333-1.756-1.333-1.756-1.09-.745.083-.73.083-.73 1.205.084 1.84 1.236 1.84 1.236 1.07 1.835 2.809 1.305 3.495.998.108-.776.419-1.305.762-1.605-2.665-.305-5.466-1.334-5.466-5.93 0-1.31.467-2.381 1.235-3.221-.124-.303-.535-1.524.117-3.176 0 0 1.008-.322 3.301 1.23A11.5 11.5 0 0 1 12 6.102a11.5 11.5 0 0 1 3.008.404c2.292-1.552 3.299-1.23 3.299-1.23.653 1.653.242 2.874.118 3.176.77.84 1.233 1.91 1.233 3.221 0 4.61-2.806 5.624-5.479 5.921.43.372.814 1.102.814 2.222v3.293c0 .32.218.694.825.576A12 12 0 0 0 12 .297Z"/>
</svg>
